<?xml version="1.0" encoding="utf-8"?>
<!-- Generator: Adobe Illustrator 17.0.0, SVG Export Plug-In . SVG Version: 6.00 Build 0)  -->
<!DOCTYPE svg PUBLIC "-//W3C//DTD SVG 1.1//EN" "http://www.w3.org/Graphics/SVG/1.1/DTD/svg11.dtd">
<svg version="1.1" id="brand-icon" xmlns="http://www.w3.org/2000/svg" xmlns:xlink="http://www.w3.org/1999/xlink" x="0px" y="0px"
	 width="582.364px" height="585.824px" viewBox="0 0 582.364 585.824" enable-background="new 0 0 582.364 585.824"
	 xml:space="preserve">
<circle id="circle" fill="#DC795C" cx="290.667" cy="292.394" r="285.335"/>
<g id="brand_1_">
	<path fill="#FFFFFF" d="M449.15,184.326c0,5.1-4.173,9.273-8.809,9.273H291.05l75.573,90.873h25.964
		c6.49,0,11.127,3.709,11.127,8.809v54.246c0,5.1-4.637,9.272-11.127,9.272H249.786v153.465c0,5.1-3.709,9.736-8.809,9.736h-54.246
		c-5.1,0-9.273-4.637-9.273-9.736V284.472h94.582l-94.582-114.055v-39.409c0-5.564,4.173-9.736,9.273-9.736h253.61
		c4.636,0,8.809,4.172,8.809,9.736V184.326z"/>
</g>
</svg>
